{"title":"The Ray Freedom Fighters 2018 720p BRRip x264 ESub [MW]","magnet":"magnet:?xt=urn:btih:b73d750c298a33a40466355e82be69a6e6b7ba1a&dn=The+Ray+Freedom+Fighters+2018+720p+BRRip+x264+ESub+%5BMW%5D&tr=udp%3A%2F%2Ftracker.leechers-paradise.org%3A6969&tr=udp%3A%2F%2Fzer0day.ch%3A1337&tr=udp%3A%2F%2Fopen.demonii.com%3A1337&tr=udp%3A%2F%2Ftracker.coppersurfer.tk%3A6969&tr=udp%3A%2F%2Fexodus.desync.com%3A6969","uploader":"MFreaky","categoryP":"video","categoryS":"hd___movies","size":"785723350","seeders":"2","leechers":"2","description":" <a href=\"https://pichub.site/image/Eqor8\" rel=\"nofollow\" target=\"_NEW\">https://pichub.site/image/Eqor8</a> <a href=\"\nhttps://pichub.site/image/Eq575\" rel=\"nofollow\" target=\"_NEW\">\nhttps://pichub.site/image/Eq575</a> <a href=\"\nhttps://pichub.site/image/EqpWJ\" rel=\"nofollow\" target=\"_NEW\">\nhttps://pichub.site/image/EqpWJ</a> <a href=\"\nhttps://pichub.site/image/EqlNh\" rel=\"nofollow\" target=\"_NEW\">\nhttps://pichub.site/image/EqlNh</a> <a href=\"\nhttps://pichub.site/image/Eq6Zj\" rel=\"nofollow\" target=\"_NEW\">\nhttps://pichub.site/image/Eq6Zj</a>\r\n\r\nVideo\r\nFormat                                   : AVC\r\nFormat/Info                              : Advanced Video Codec\r\nFormat profile                           : High@L4.1\r\nFormat settings                          : CABAC / 4 Ref Frames\r\nFormat settings, CABAC                   : Yes\r\nFormat settings, RefFrames               : 4 frames\r\nCodec ID                                 : V_MPEG4/ISO/AVC\r\nDuration                                 : 1 h 13 min\r\nBit rate                                 : 1 300 kb/s\r\nWidth                                    : 1 280 pixels\r\nHeight                                   : 720 pixels\r\nDisplay aspect ratio                     : 16:9\r\nFrame rate mode                          : Constant\r\nFrame rate                               : 23.976 (24000/1001) FPS\r\nColor space                              : YUV\r\nChroma subsampling                       : 4:2:0\r\nBit depth                                : 8 bits\r\nBits/(Pixel*Frame)                       : 0.059\r\nStream size                              : 678 MiB (91%)\r\nWriting library                          : x264 core 155 r2901 7d0ff22\r\n\r\nAudio\r\nFormat                                   : AAC\r\nFormat/Info                              : Advanced Audio Codec\r\nFormat profile                           : LC\r\nCodec ID                                 : A_AAC-2\r\nDuration                                 : 1 h 13 min\r\nBit rate                                 : 128 kb/s\r\nChannel(s)                               : 2 channels\r\nChannel positions                        : Front: L R\r\nSampling rate                            : 48.0 kHz\r\nFrame rate                               : 46.875 FPS (1024 SPF)\r\nStream size                              : 67.0 MiB (9%)\r\nLanguage                                 : English","last_updated":"2018-10-07T12:14:08.191Z","parsed":{"xt":"urn:btih:b73d750c298a33a40466355e82be69a6e6b7ba1a","dn":"The Ray Freedom Fighters 2018 720p BRRip x264 ESub [MW]","tr":["udp://exodus.desync.com:6969","udp://open.demonii.com:1337","udp://tracker.coppersurfer.tk:6969","udp://tracker.leechers-paradise.org:6969","udp://zer0day.ch:1337"],"infoHash":"b73d750c298a33a40466355e82be69a6e6b7ba1a","infoHashBuffer":{"type":"Buffer","data":[183,61,117,12,41,138,51,164,4,102,53,94,130,190,105,166,230,183,186,26]},"name":"The Ray Freedom Fighters 2018 720p BRRip x264 ESub [MW]","announce":["udp://exodus.desync.com:6969","udp://open.demonii.com:1337","udp://tracker.coppersurfer.tk:6969","udp://tracker.leechers-paradise.org:6969","udp://zer0day.ch:1337"],"urlList":[]}}